<mxfile host="Electron" modified="2024-08-26T13:10:37.633Z" agent="Mozilla/5.0 (X11; Linux x86_64) AppleWebKit/537.36 (KHTML, like Gecko) draw.io/24.6.4 Chrome/124.0.6367.207 Electron/30.0.6 Safari/537.36" etag="rWsGRCz69AkJwhOUGvoN" version="24.6.4" type="device">
  <diagram name="Page-1" id="SM2nIvVeTATe-zLDkQ0_">
    <mxGraphModel dx="1450" dy="1019" grid="1" gridSize="10" guides="1" tooltips="1" connect="1" arrows="1" fold="1" page="1" pageScale="1" pageWidth="850" pageHeight="1100" math="0" shadow="0">
      <root>
        <mxCell id="0" />
        <mxCell id="1" parent="0" />
        <mxCell id="liE4Xck2yJehLzdYn3EK-1" value="Consumer Connector&lt;div&gt;(contains catalog crawler)&lt;/div&gt;" style="rounded=1;whiteSpace=wrap;html=1;fontFamily=Courier New;fillColor=#b1ddf0;strokeColor=#10739e;fillStyle=auto;gradientColor=none;" vertex="1" parent="1">
          <mxGeometry x="170" y="210" width="170" height="110" as="geometry" />
        </mxCell>
        <mxCell id="liE4Xck2yJehLzdYn3EK-2" value="Consumer IdentityHub" style="rounded=1;whiteSpace=wrap;html=1;fontFamily=Courier New;fillColor=#fad7ac;strokeColor=#b46504;" vertex="1" parent="1">
          <mxGeometry x="170" y="350" width="169" height="90" as="geometry" />
        </mxCell>
        <mxCell id="liE4Xck2yJehLzdYn3EK-3" value="Provider Catalog Server" style="rounded=1;whiteSpace=wrap;html=1;fontFamily=Courier New;fillColor=#9AC7BF;strokeColor=#0e8088;" vertex="1" parent="1">
          <mxGeometry x="480" y="210" width="200" height="110" as="geometry" />
        </mxCell>
        <mxCell id="liE4Xck2yJehLzdYn3EK-4" value="Provider IdentityHub" style="rounded=1;whiteSpace=wrap;html=1;fontFamily=Courier New;fillColor=#fad7ac;strokeColor=#b46504;" vertex="1" parent="1">
          <mxGeometry x="480" y="350" width="170" height="90" as="geometry" />
        </mxCell>
        <mxCell id="liE4Xck2yJehLzdYn3EK-5" value="Provider &quot;qna&quot; Connector" style="rounded=1;whiteSpace=wrap;html=1;fontFamily=Courier New;fillColor=#b1ddf0;strokeColor=#10739e;" vertex="1" parent="1">
          <mxGeometry x="920" y="230" width="170" height="80" as="geometry" />
        </mxCell>
        <mxCell id="liE4Xck2yJehLzdYn3EK-6" value="Provider &quot;manufacturing&quot; Connector" style="rounded=1;whiteSpace=wrap;html=1;fontFamily=Courier New;fillColor=#b1ddf0;strokeColor=#10739e;" vertex="1" parent="1">
          <mxGeometry x="920" y="330" width="170" height="70" as="geometry" />
        </mxCell>
        <mxCell id="liE4Xck2yJehLzdYn3EK-7" value="" style="endArrow=none;dashed=1;html=1;dashPattern=1 3;strokeWidth=2;rounded=0;" edge="1" parent="1">
          <mxGeometry width="50" height="50" relative="1" as="geometry">
            <mxPoint x="410" y="460" as="sourcePoint" />
            <mxPoint x="410" y="120" as="targetPoint" />
          </mxGeometry>
        </mxCell>
        <mxCell id="liE4Xck2yJehLzdYn3EK-8" value="Consumer Corporation" style="text;html=1;align=center;verticalAlign=middle;whiteSpace=wrap;rounded=0;fontSize=20;" vertex="1" parent="1">
          <mxGeometry x="220" y="130" width="60" height="30" as="geometry" />
        </mxCell>
        <mxCell id="liE4Xck2yJehLzdYn3EK-9" value="Provider Corporation" style="text;html=1;align=center;verticalAlign=middle;whiteSpace=wrap;rounded=0;fontSize=20;" vertex="1" parent="1">
          <mxGeometry x="530" y="130" width="60" height="30" as="geometry" />
        </mxCell>
        <mxCell id="liE4Xck2yJehLzdYn3EK-10" value="asset1: ...&lt;div&gt;asset2: ...&lt;/div&gt;" style="shape=note;whiteSpace=wrap;html=1;backgroundOutline=1;darkOpacity=0.05;fontFamily=Courier New;align=center;" vertex="1" parent="1">
          <mxGeometry x="1170" y="200" width="110" height="100" as="geometry" />
        </mxCell>
        <mxCell id="liE4Xck2yJehLzdYn3EK-11" style="edgeStyle=orthogonalEdgeStyle;rounded=0;orthogonalLoop=1;jettySize=auto;html=1;entryX=0;entryY=0.5;entryDx=0;entryDy=0;entryPerimeter=0;" edge="1" parent="1" source="liE4Xck2yJehLzdYn3EK-5" target="liE4Xck2yJehLzdYn3EK-10">
          <mxGeometry relative="1" as="geometry" />
        </mxCell>
        <mxCell id="liE4Xck2yJehLzdYn3EK-12" value="asset1: ...&lt;div&gt;asset2: ...&lt;/div&gt;" style="shape=note;whiteSpace=wrap;html=1;backgroundOutline=1;darkOpacity=0.05;fontFamily=Courier New;align=center;" vertex="1" parent="1">
          <mxGeometry x="1170" y="340" width="110" height="100" as="geometry" />
        </mxCell>
        <mxCell id="liE4Xck2yJehLzdYn3EK-13" style="edgeStyle=orthogonalEdgeStyle;rounded=0;orthogonalLoop=1;jettySize=auto;html=1;entryX=0;entryY=0.5;entryDx=0;entryDy=0;entryPerimeter=0;" edge="1" parent="1" source="liE4Xck2yJehLzdYn3EK-6" target="liE4Xck2yJehLzdYn3EK-12">
          <mxGeometry relative="1" as="geometry" />
        </mxCell>
        <mxCell id="liE4Xck2yJehLzdYn3EK-14" value="linked_asset1:...&lt;div&gt;linked_asset12...&lt;br&gt;&lt;/div&gt;&lt;div&gt;some_other_asset:...&lt;/div&gt;" style="shape=note;whiteSpace=wrap;html=1;backgroundOutline=1;darkOpacity=0.05;fontFamily=Courier New;align=left;" vertex="1" parent="1">
          <mxGeometry x="710" y="150" width="150" height="100" as="geometry" />
        </mxCell>
        <mxCell id="liE4Xck2yJehLzdYn3EK-15" style="edgeStyle=orthogonalEdgeStyle;rounded=0;orthogonalLoop=1;jettySize=auto;html=1;entryX=0;entryY=0.5;entryDx=0;entryDy=0;entryPerimeter=0;" edge="1" parent="1" source="liE4Xck2yJehLzdYn3EK-3" target="liE4Xck2yJehLzdYn3EK-14">
          <mxGeometry relative="1" as="geometry" />
        </mxCell>
        <mxCell id="liE4Xck2yJehLzdYn3EK-16" value="points to" style="edgeStyle=orthogonalEdgeStyle;rounded=0;orthogonalLoop=1;jettySize=auto;html=1;entryX=-0.003;entryY=0.312;entryDx=0;entryDy=0;entryPerimeter=0;dashed=1;" edge="1" parent="1" source="liE4Xck2yJehLzdYn3EK-14" target="liE4Xck2yJehLzdYn3EK-10">
          <mxGeometry relative="1" as="geometry">
            <Array as="points">
              <mxPoint x="1130" y="200" />
              <mxPoint x="1130" y="231" />
            </Array>
          </mxGeometry>
        </mxCell>
        <mxCell id="liE4Xck2yJehLzdYn3EK-17" value="points to" style="edgeStyle=orthogonalEdgeStyle;rounded=0;orthogonalLoop=1;jettySize=auto;html=1;entryX=-0.007;entryY=0.769;entryDx=0;entryDy=0;entryPerimeter=0;dashed=1;" edge="1" parent="1" source="liE4Xck2yJehLzdYn3EK-14" target="liE4Xck2yJehLzdYn3EK-12">
          <mxGeometry relative="1" as="geometry">
            <Array as="points">
              <mxPoint x="790" y="440" />
              <mxPoint x="1120" y="440" />
              <mxPoint x="1120" y="417" />
            </Array>
          </mxGeometry>
        </mxCell>
      </root>
    </mxGraphModel>
  </diagram>
</mxfile>
